<svg xmlns="http://www.w3.org/2000/svg" width="40" height="40" viewBox="0 0 40 40"><defs><style>.a{fill:#ffcc05;}</style></defs><g transform="translate(-18.84 -12.32)"><path class="a" d="M207.352,199.39l-3.656-3.656,3.656-3.656a1.108,1.108,0,0,0-1.567-1.567l-3.656,3.656-3.656-3.656a1.108,1.108,0,1,0-1.567,1.567l3.656,3.656L196.9,199.39a1.071,1.071,0,0,0-.053,1.514.709.709,0,0,0,.053.053,1.1,1.1,0,0,0,1.562.006l.006-.006,3.656-3.656,3.656,3.656a1.113,1.113,0,0,0,1.567,0,1.09,1.09,0,0,0,.043-1.55A.046.046,0,0,0,207.352,199.39Z" transform="translate(-163.294 -163.422)"/><path class="a" d="M38.84,15.011A17.3,17.3,0,1,1,26.6,20.078a17.3,17.3,0,0,1,12.24-5.067m0-2.691a20,20,0,1,0,20,20A20,20,0,0,0,38.84,12.32Z" transform="translate(0 0)"/></g></svg>