<?xml version="1.0" encoding="utf-8"?>
<!-- Generator: Adobe Illustrator 22.0.1, SVG Export Plug-In . SVG Version: 6.00 Build 0)  -->
<svg version="1.1" id="Layer_1" xmlns="http://www.w3.org/2000/svg" xmlns:xlink="http://www.w3.org/1999/xlink" x="0px" y="0px"
	 viewBox="0 0 391 69.1" style="enable-background:new 0 0 391 69.1;" xml:space="preserve">
<style type="text/css">
	.st0{fill:#275E60;}
	.st1{fill:#D9B86C;}
</style>
<g>
	<path class="st0" d="M4.9,1.1h2.7l3.9,10.2H9.4L8.6,9.2H3.9l-0.8,2.1H1L4.9,1.1z M4.4,7.6h3.8L6.4,2.7H6.2L4.4,7.6z"/>
	<path class="st0" d="M19.5,3.2L19.5,3.2l-0.1,8.1h-1.9V1.1h3.2l2.9,8.3l2.8-8.3h3.1v10.1h-1.9V3.1h-0.1l-2.9,8.1c0,0,0,0-2.3,0
		L19.5,3.2z"/>
	<path class="st0" d="M44.2,1.1v1.5h-5.6v2.7h4.8v1.5h-4.8v2.8h5.5v1.5h-7.5v-10H44.2z"/>
	<path class="st0" d="M54.5,1.1c2.6,0,4.2,1,4.2,3.4c0,0.9-0.4,2.1-1.7,2.9l2.2,3.9H57c-0.6-1.1-1.2-2.3-1.9-3.4c-0.2,0-0.5,0-0.9,0
		h-1.4v3.4h-2V1.1H54.5z M52.8,6.4h1.9c1.5,0,2-1,2-1.9c0-0.8-0.6-1.8-2.1-1.8h-1.9L52.8,6.4L52.8,6.4z"/>
	<path class="st0" d="M65.5,1.1h2v10.1h-2V1.1z"/>
	<path class="st0" d="M79.3,1c0.9,0,1.9,0.1,3,0.3v1.6c-0.7-0.2-1.8-0.4-2.6-0.4c-2.2,0-3.5,1-3.5,3.6c0,2.8,1.6,3.8,3.4,3.8
		c0.9,0,1.9-0.2,2.8-0.5V11c-1,0.3-2.2,0.4-3,0.4c-3.5,0-5.2-2-5.2-5.2C74.1,3,75.9,1,79.3,1z"/>
	<path class="st0" d="M91.6,1.1h2.7l3.8,10.1H96l-0.8-2.1h-4.7l-0.8,2.1h-2.1L91.6,1.1z M91,7.6h3.8L93,2.7h-0.2L91,7.6z"/>
	<path class="st0" d="M103.3,0.8h1.7c0,0.3,0,0.5,0,0.7c0,1-0.4,2-0.9,2.9h-0.8V0.8z"/>
	<path class="st0" d="M116.8,8.3c0-1.2-1.2-1.3-2.6-1.5c-1.5-0.2-3.2-0.7-3.2-2.9c0-2.4,2.2-3,4.3-3c1,0,2,0.1,2.9,0.2v1.6
		c-0.8-0.1-1.9-0.2-2.9-0.2c-1.6,0-2.3,0.4-2.3,1.4c0,1.1,1,1.2,2.2,1.4c1.6,0.2,3.5,0.5,3.5,2.9c0,2.2-1.8,3.2-4.3,3.2
		c-1.2,0-2.4-0.1-3.3-0.3V9.5c1.2,0.2,2.2,0.4,3.2,0.4C116,9.9,116.8,9.4,116.8,8.3z"/>
	<path class="st0" d="M135.9,4.1v7.2h-2V1.1h2.1l5.3,7.4V1.1h2v10.1h-2.1L135.9,4.1z"/>
	<path class="st0" d="M153.2,1.1h2.7l3.8,10.1h-2.1l-0.8-2.1h-4.7l-0.8,2.1h-2.1L153.2,1.1z M152.6,7.6h3.8l-1.8-4.9h-0.2L152.6,7.6
		z"/>
	<path class="st0" d="M173,2.7h-3.7v8.6h-2V2.7h-3.7V1.2h9.4V2.7z"/>
	<path class="st0" d="M183.5,11.4c-2.9,0-4.5-1.3-4.5-3.8V1.1h2v6.7c0,1.4,1.3,2.1,2.5,2.1c1.3,0,2.5-0.7,2.5-2.1V1.1h2v6.5
		C188,10.1,186.4,11.4,183.5,11.4z"/>
	<path class="st0" d="M198.8,1.1c2.6,0,4.2,1,4.2,3.4c0,0.9-0.4,2.1-1.7,2.9l2.2,3.9h-2.2c-0.6-1.1-1.2-2.3-1.9-3.4
		c-0.2,0-0.5,0-0.9,0h-1.4v3.4h-2V1.1H198.8z M197,6.4h1.9c1.5,0,2-1,2-1.9c0-0.8-0.6-1.8-2.1-1.8h-1.9v3.7
		C196.9,6.4,197,6.4,197,6.4z"/>
	<path class="st0" d="M212.4,1.1h2.7l3.8,10.1h-2.1L216,9.1h-4.5l-0.8,2.1h-2.1L212.4,1.1z M211.9,7.6h3.8l-1.8-4.9h-0.2L211.9,7.6z
		"/>
	<path class="st0" d="M227,1.1v8.6h5.2v1.5h-7.1V1.1H227z"/>
	<path class="st0" d="M251.5,9.9c0.6,0,1.2-0.1,1.9-0.3V6h2v4.7c-1.2,0.4-2.7,0.7-4.2,0.7c-3.7,0-5.4-2-5.4-5.3c0-3,2-5.2,5.9-5.2
		c1,0,2.2,0.1,3.2,0.3v1.6c-1-0.3-2.3-0.4-3.1-0.4c-2,0-4,1-4,3.7C247.8,8.7,249.3,9.9,251.5,9.9z"/>
	<path class="st0" d="M264.8,1.1h2.7l3.8,10.1h-2.1l-0.8-2.1h-4.7l-0.8,2.1h-2.1L264.8,1.1z M264.2,7.6h3.8l-1.8-4.9H266L264.2,7.6z
		"/>
	<path class="st0" d="M282.5,8.3c0-1.2-1.2-1.3-2.6-1.5c-1.5-0.2-3.2-0.7-3.2-2.9c0-2.4,2.2-3,4.3-3c1,0,2,0.1,2.9,0.2v1.6
		c-0.8-0.1-1.9-0.2-2.9-0.2c-1.6,0-2.3,0.4-2.3,1.4c0,1.1,1,1.2,2.2,1.4c1.6,0.2,3.5,0.5,3.5,2.9c0,2.2-1.8,3.2-4.3,3.2
		c-1.2,0-2.4-0.1-3.3-0.3V9.5c1.2,0.2,2.2,0.4,3.2,0.4C281.7,9.9,282.5,9.4,282.5,8.3z"/>
	<path class="st0" d="M301.8,1.1h2.7l3.8,10.1h-2.1l-0.8-2.1h-4.7l-0.8,2.1h-2.1L301.8,1.1z M301.3,7.6h3.8l-1.8-4.9h-0.2L301.3,7.6
		z"/>
	<path class="st0" d="M316.4,4.1v7.2h-2V1.1h2.1l5.3,7.4V1.1h2v10.1h-2.1L316.4,4.1z"/>
	<path class="st0" d="M331,11.3V1.1h4c3.1,0,5.3,1.7,5.3,5.1s-2.2,5.1-5.3,5.1H331z M334.7,2.7h-1.8v7.1h1.8c2.3,0,3.5-1.5,3.5-3.5
		S337,2.7,334.7,2.7z"/>
	<path class="st0" d="M360,1c3.5,0,5.1,1.9,5.1,5.2s-1.6,5.2-5.1,5.2s-5.1-1.9-5.1-5.2S356.5,1,360,1z M360,2.5
		c-2,0-3.1,1.2-3.1,3.7s1.1,3.7,3.1,3.7s3.1-1.2,3.1-3.7C363.1,3.6,362,2.5,360,2.5z"/>
	<path class="st0" d="M371.7,1.1h2v10.1h-2V1.1z"/>
	<path class="st0" d="M382.8,1.1v8.6h5.2v1.5h-7.1V1.1H382.8z"/>
</g>
<g>
	<g>
		<g>
			<path class="st1" d="M150.3,65.5c0-3.3,2.9-12.8,7.8-25.3c3.1-0.4,5.1-0.7,5.8-0.9h0.1l0.1-0.1c0.2-0.4,0.5-0.9,0.5-1.5v-0.2
				h-0.2c-1.4,0.1-3.3,0.2-5.3,0.3c1.2-3.1,2.4-5.6,2.7-6.3c1-2.1,2.1-4.3,3.4-6.1c0.1-0.1,0.2-0.1,0.3-0.1l0,0
				c0.3,1.2,0.4,2.4,0.4,4.2v0.1h0.1c0.1,0,0.1,0.1,0.2,0.1c0.2,0.2,0.6,0.4,1,0.5l0,0l0,0c0.7-0.2,1.7-0.7,2-1.1l0,0l0,0
				c-0.2-2.6-1-5.5-1.8-7.2v-0.1h-0.1c-1.1,0-2.1,0.3-3.1,0.6l0,0l0,0c-2.5,3.2-4.6,7.2-8.3,15.4c-1.1,0.1-2,0.1-2.9,0.2h-0.3l0,0
				c-0.4,0.3-0.8,0.9-1.2,1.4l0,0l0,0c0,0.2,0.1,0.8,0.2,1.1v0.1h0.1c0.6-0.1,1.7-0.2,3-0.3c-3.8,9.7-6.5,17.9-8.8,26.4v0.1v0.1
				c0.4,0.7,1.6,1.3,2.3,1.3l0,0l0,0c0.5-0.2,1.6-0.8,1.9-1.2l0,0v-0.1c-0.1-0.4-0.1-0.6-0.1-0.9C150.3,65.9,150.3,65.7,150.3,65.5z
				"/>
			<path class="st1" d="M173.5,35.9L173.5,35.9c-0.7,0-1.9,0.7-2.8,1.5c-0.6-0.5-1.2-0.8-1.8-0.8l0,0l0,0c-2.2,1.4-7.8,7.4-7.8,12.9
				c0,2.3,1.1,3.7,2.9,3.7c4.6,0,11.2-8.4,11.2-14.3C175.1,37.3,174.5,36.3,173.5,35.9z M166.2,49.9c-0.9,0-1.6-0.2-1.6-2.2
				c0-3.1,2.6-7.6,5.5-9.5c1,0.3,1.6,1.2,1.6,2.5C171.7,44.4,168.1,49.9,166.2,49.9z"/>
			<path class="st1" d="M192.4,36.2c-0.6-0.5-1.6-1-2.3-1.2l0,0c-1.5,0-4.8,3.2-8.8,8.4h-0.2c0,0,0,0,0-0.1c0.7-2.2,0.9-3.9,0.9-4.7
				s0-1.3-0.3-2.1v-0.1h-0.1c-1.6-0.1-2.7,0.5-3.6,1.9l-0.1,0.1v0.1c0.2,0.4,0.5,1.3,0.5,2.7c0,1.6-1.6,6.2-3.7,11.2v0.1l0.1,0.1
				c0.2,0.2,0.9,0.6,1.7,0.7l0,0l0.2-0.1c0.6-0.2,1.3-0.6,1.7-0.9v-0.1c0.6-1.5,1.7-3.4,2-3.9c4-6.5,7-9.3,8-9.8
				c0.5,0.5,1,0.8,1.3,0.9h0.1c0.5,0,1.5-0.4,2-0.8l0,0c0.3-0.6,0.5-1.8,0.5-2.3L192.4,36.2L192.4,36.2z"/>
		</g>
	</g>
	<g>
		<path class="st0" d="M22,29.3v6.4H9.6v4.4h9.7v6.2H9.6v4.6h12.3v6.3H1.4V29.3H22z"/>
		<path class="st0" d="M32.1,42v15.1h-8V29.3h8.6l8.9,15.6V29.3h7.9v27.8h-8.4L32.1,42z"/>
		<path class="st0" d="M73.3,29.3v6.4H60.9v4.4h9.7v6.2h-9.7v4.6h12.3v6.3H52.8V29.3H73.3z"/>
		<path class="st0" d="M85.3,29.3c8.2,0,12.9,2.5,12.9,10c0,2-0.8,5.3-3.7,7.6l4.6,10.2h-8.9l-3.4-8.3h-3.3v8.3h-8.1V29.3H85.3z
			 M83.5,42.8h2.9c2.8,0,3.4-2,3.4-3.7c0-1.6-0.9-3.6-3.4-3.6h-2.9V42.8z"/>
		<path class="st0" d="M113.9,51.1c0.9,0,1.6-0.1,2.6-0.3v-9h7.8v13.7c-2.8,1-7.1,2-11.5,2c-10,0-13.6-5.7-13.6-14.5
			c0-8.1,5.1-14.2,15.5-14.2c3.1,0,6.4,0.3,8.8,1v6.6c-2.2-0.7-5.9-1.2-8-1.2c-3.9,0-8.1,1.7-8.1,8
			C107.4,48.6,109.7,51.1,113.9,51.1z"/>
		<path class="st0" d="M133.2,57.1v-9l-9.6-18.8h8.9l4.7,11.4h0.3l4.5-11.4h8.8l-9.6,18.8v9H133.2z"/>
	</g>
	<g>
		<path class="st0" d="M205.2,50v7.1h-8.1V29.3h12.4c6.1,0,10,4.6,10,10.3s-4,10.3-9.8,10.3L205.2,50L205.2,50z M205.2,43.6h2.8
			c2.4,0,3.2-1.9,3.2-4s-0.8-4-3.2-4h-2.8V43.6z"/>
		<path class="st0" d="M230.9,29.3c8.2,0,12.9,2.5,12.9,10c0,2-0.8,5.3-3.7,7.6l4.6,10.2h-8.9l-3.4-8.3h-3.2v8.3h-8.1V29.3H230.9z
			 M229.1,42.8h2.9c2.8,0,3.4-2,3.4-3.7c0-1.6-0.9-3.6-3.4-3.6h-2.9V42.8z"/>
		<path class="st0" d="M258.2,28.8c8.8,0,13.5,5,13.5,14.4c0,9.3-4.7,14.4-13.5,14.4s-13.5-5-13.5-14.4
			C244.8,33.8,249.4,28.8,258.2,28.8z M258.2,51.2c3.6,0,5.2-2.5,5.2-8c0-5.6-1.7-8-5.2-8s-5.2,2.4-5.2,8
			C253,48.7,254.7,51.2,258.2,51.2z"/>
		<path class="st0" d="M287.2,51.1c0.9,0,1.6-0.1,2.6-0.3v-9h7.8v13.7c-2.8,1-7.1,2-11.5,2c-10,0-13.6-5.7-13.6-14.5
			c0-8.1,5.1-14.2,15.5-14.2c3.1,0,6.4,0.3,8.8,1v6.6c-2.2-0.7-5.9-1.2-8-1.2c-3.9,0-8.1,1.7-8.1,8C280.7,48.6,283,51.1,287.2,51.1z
			"/>
		<path class="st0" d="M309.9,29.3c8.2,0,12.9,2.5,12.9,10c0,2-0.8,5.3-3.7,7.6l4.6,10.2h-8.9l-3.4-8.3h-3.2v8.3h-8.1V29.3H309.9z
			 M308.2,42.8h2.9c2.8,0,3.4-2,3.4-3.7c0-1.6-0.9-3.6-3.4-3.6h-2.9V42.8z"/>
		<path class="st0" d="M345.6,29.3v6.4h-12.4v4.4h9.7v6.2h-9.7v4.6h12.3v6.3h-20.4V29.3H345.6z"/>
		<path class="st0" d="M359.7,48.7c0-4.2-13.1,0.5-13.1-11c0-7.2,6.1-8.9,12-8.9c2.8,0,5.4,0.3,7.9,0.6v6.4c-2-0.3-5.1-0.7-7.6-0.7
			c-2.4,0-4.1,0.5-4.1,2.4c0,4.2,13.2-0.7,13.2,10.7c0,7.3-5.4,9.4-11.5,9.4c-3.3,0-6.7-0.4-9.4-0.9v-6.4c2.3,0.5,6.3,1.1,8.7,1.1
			C358.4,51.3,359.7,50.5,359.7,48.7z"/>
		<path class="st0" d="M381.8,48.7c0-4.2-13.1,0.5-13.1-11c0-7.2,6.1-8.9,12-8.9c2.8,0,5.4,0.3,7.9,0.6v6.4c-2-0.3-5.1-0.7-7.6-0.7
			c-2.4,0-4.1,0.5-4.1,2.4c0,4.2,13.2-0.7,13.2,10.7c0,7.3-5.4,9.4-11.5,9.4c-3.3,0-6.7-0.4-9.4-0.9v-6.4c2.3,0.5,6.3,1.1,8.7,1.1
			C380.5,51.3,381.8,50.5,381.8,48.7z"/>
	</g>
</g>
</svg>
