<svg xmlns="http://www.w3.org/2000/svg" width="488.25" height="115" viewBox="0 0 488.25 115">
  <g id="Group_292" data-name="Group 292" transform="translate(-716 -62)">
    <g id="Group_290" data-name="Group 290" transform="translate(716 62)">
      <g id="Group_286" data-name="Group 286" transform="translate(181.332 25.802)">
        <g id="Group_285" data-name="Group 285">
          <path id="Path_311" data-name="Path 311" d="M233.354,87.429c0-4.221,3.663-16.087,9.8-31.855,3.9-.557,6.371-.956,7.327-1.195h.08l.08-.159a4.166,4.166,0,0,0,.637-1.832V52.15h-.239c-1.752.159-4.141.319-6.689.4,1.513-3.9,3.026-7.008,3.424-7.964a58.806,58.806,0,0,1,4.221-7.645.608.608,0,0,1,.4-.159v.08a23.815,23.815,0,0,1,.557,5.336v.08l.08.08c.08.08.159.08.239.159a4.221,4.221,0,0,0,1.195.637h.159a4.446,4.446,0,0,0,2.469-1.433v-.159a28.082,28.082,0,0,0-2.23-9.079l-.08-.08h-.159a13.612,13.612,0,0,0-3.982.8h-.08v.08c-3.106,3.982-5.813,9.079-10.432,19.352-1.433.08-2.548.159-3.584.239h-.478a6.508,6.508,0,0,0-1.433,1.752v.159a10.163,10.163,0,0,0,.159,1.354l.08.159h.159c.717-.08,2.15-.319,3.743-.4A304.7,304.7,0,0,0,227.7,89.021v.08l.08.08a4.171,4.171,0,0,0,2.947,1.672h0a7.221,7.221,0,0,0,2.389-1.513l.08-.08v-.08a6.054,6.054,0,0,1-.08-1.115C233.354,87.986,233.354,87.747,233.354,87.429Z" transform="translate(-227.7 -32.4)" fill="#ffffff"/>
          <path id="Path_312" data-name="Path 312" d="M267.268,54.8h0a5.8,5.8,0,0,0-3.424,1.911,3.471,3.471,0,0,0-2.309-.956h-.159c-2.708,1.672-9.875,9.238-9.875,16.166,0,2.867,1.433,4.619,3.663,4.619,5.813,0,14.1-10.592,14.1-18C269.339,56.552,268.622,55.278,267.268,54.8Zm-9.079,17.6c-1.115,0-2.071-.239-2.071-2.787,0-3.9,3.265-9.477,6.928-11.945a3.018,3.018,0,0,1,1.991,3.106C265.118,65.471,260.579,72.4,258.189,72.4Z" transform="translate(-232.547 -36.961)" fill="#ffffff"/>
          <path id="Path_313" data-name="Path 313" d="M295.5,54.913a8.293,8.293,0,0,0-2.867-1.513h-.08c-1.832,0-6.052,4.061-11.069,10.512h-.239v-.08a22.4,22.4,0,0,0,1.195-5.893,7.23,7.23,0,0,0-.319-2.628l-.08-.159h-.159a4.633,4.633,0,0,0-4.539,2.389l-.08.08.08.08a8.57,8.57,0,0,1,.557,3.424c-.08,2.071-1.991,7.8-4.619,14.016l-.08.159.08.08a4.22,4.22,0,0,0,2.15.876h.08l.239-.08a10.826,10.826,0,0,0,2.15-1.115l.08-.08a36.964,36.964,0,0,1,2.469-4.858c5.1-8.2,8.84-11.707,10.034-12.264a3.466,3.466,0,0,0,1.672,1.195h.08a5.767,5.767,0,0,0,2.548-1.035l.08-.08a7.628,7.628,0,0,0,.557-2.867l.08-.159Z" transform="translate(-236.965 -36.676)" fill="#ffffff"/>
        </g>
      </g>
      <g id="Group_287" data-name="Group 287" transform="translate(0 34.801)">
        <path id="Path_314" data-name="Path 314" d="M25.8,44.4v8.043H10.193v5.495H22.378v7.645H10.193v5.734H25.643v7.964H0V44.4Z" transform="translate(0 -43.843)" fill="#ffffff"/>
        <path id="Path_315" data-name="Path 315" d="M45.834,60.327V79.281H35.8V44.4H46.551L57.78,63.991V44.4h9.955V79.36H57.143Z" transform="translate(-7.29 -43.843)" fill="#ffffff"/>
        <path id="Path_316" data-name="Path 316" d="M106.8,44.4v8.043H91.193v5.495h12.1v7.645h-12.1v5.734h15.449v7.964H81V44.4Z" transform="translate(-16.495 -43.843)" fill="#ffffff"/>
        <path id="Path_317" data-name="Path 317" d="M129.023,44.4c10.353,0,16.166,3.185,16.166,12.583a12.148,12.148,0,0,1-4.619,9.477L146.3,79.281H135.155l-4.3-10.432h-4.061V79.281H116.6V44.4Zm-2.15,17.042h3.663c3.5,0,4.3-2.548,4.3-4.7,0-2.071-1.115-4.46-4.3-4.46h-3.663Z" transform="translate(-23.744 -43.843)" fill="#ffffff"/>
        <path id="Path_318" data-name="Path 318" d="M172.555,71.732a15.885,15.885,0,0,0,3.265-.4V60.025h9.716v17.2a44.258,44.258,0,0,1-14.494,2.548c-12.5,0-17.042-7.167-17.042-18.237,0-10.273,6.371-17.839,19.511-17.839a46.686,46.686,0,0,1,11.069,1.195l-.08,8.282a45.482,45.482,0,0,0-9.955-1.433c-4.937,0-10.114,2.15-10.114,10.034C164.432,68.547,167.3,71.732,172.555,71.732Z" transform="translate(-31.36 -43.7)" fill="#ffffff"/>
        <path id="Path_319" data-name="Path 319" d="M204.825,79.281V68.052L192.8,44.4h11.149l5.893,14.255h.4L215.895,44.4h11.069L214.939,68.052V79.281H204.825Z" transform="translate(-39.261 -43.843)" fill="#ffffff"/>
      </g>
      <g id="Group_288" data-name="Group 288" transform="translate(245.758 34.721)">
        <path id="Path_320" data-name="Path 320" d="M318.793,70.361v8.919H308.6V44.4h15.529c7.645,0,12.583,5.734,12.583,12.981s-4.937,12.981-12.264,12.981Zm0-7.964h3.5c3.026,0,4.061-2.389,4.061-5.017s-1.035-5.017-4.061-5.017h-3.5Z" transform="translate(-308.6 -43.763)" fill="#ffffff"/>
        <path id="Path_321" data-name="Path 321" d="M358.723,44.4c10.353,0,16.166,3.185,16.166,12.583a12.148,12.148,0,0,1-4.619,9.477L376,79.281H364.855l-4.3-10.432h-4.061V79.281H346.3V44.4Zm-2.15,17.042h3.663c3.5,0,4.3-2.548,4.3-4.7,0-2.071-1.115-4.46-4.3-4.46h-3.663Z" transform="translate(-316.277 -43.763)" fill="#ffffff"/>
        <path id="Path_322" data-name="Path 322" d="M400.763,43.6c11.069,0,16.963,6.291,16.963,18.077,0,11.707-5.893,18.077-16.963,18.077S383.8,73.464,383.8,61.677,389.693,43.6,400.763,43.6Zm0,28.191c4.46,0,6.53-3.106,6.53-10.114s-2.071-10.034-6.53-10.034c-4.38,0-6.53,3.026-6.53,10.034S396.3,71.791,400.763,71.791Z" transform="translate(-323.913 -43.6)" fill="#ffffff"/>
        <path id="Path_323" data-name="Path 323" d="M445.955,71.732a15.885,15.885,0,0,0,3.265-.4V60.025h9.716v17.2a44.258,44.258,0,0,1-14.494,2.548c-12.5,0-17.042-7.167-17.042-18.237,0-10.273,6.371-17.839,19.511-17.839a46.685,46.685,0,0,1,11.069,1.195l-.08,8.282a45.482,45.482,0,0,0-9.955-1.433c-4.937,0-10.114,2.15-10.114,10.034C437.832,68.547,440.7,71.732,445.955,71.732Z" transform="translate(-332.792 -43.62)" fill="#ffffff"/>
        <path id="Path_324" data-name="Path 324" d="M483.444,44.4c10.353,0,16.166,3.185,16.166,12.583a12.148,12.148,0,0,1-4.619,9.477l5.734,12.821H489.576l-4.221-10.432h-4.061V79.281H471.1V44.4Zm-2.15,17.042h3.663c3.5,0,4.3-2.548,4.3-4.7,0-2.071-1.115-4.46-4.3-4.46h-3.663Z" transform="translate(-341.691 -43.763)" fill="#ffffff"/>
        <path id="Path_325" data-name="Path 325" d="M536.3,44.4v8.043H520.693v5.495h12.184v7.645H520.693v5.734h15.45v7.964H510.5V44.4Z" transform="translate(-349.714 -43.763)" fill="#ffffff"/>
        <path id="Path_326" data-name="Path 326" d="M560.985,68.606c0-5.256-16.485.717-16.485-13.857,0-9.079,7.645-11.149,15.051-11.149a92.708,92.708,0,0,1,9.875.717V52.44a66.864,66.864,0,0,0-9.477-.956c-3.026,0-5.176.717-5.176,3.026,0,5.256,16.644-.876,16.644,13.379,0,9.158-6.849,11.786-14.494,11.786a66.271,66.271,0,0,1-11.786-1.195V70.517a62.824,62.824,0,0,0,10.99,1.354C559.312,71.871,560.985,70.836,560.985,68.606Z" transform="translate(-356.638 -43.6)" fill="#ffffff"/>
        <path id="Path_327" data-name="Path 327" d="M595.785,68.606c0-5.256-16.485.717-16.485-13.857,0-9.079,7.645-11.149,15.051-11.149a92.708,92.708,0,0,1,9.875.717V52.44a66.862,66.862,0,0,0-9.477-.956c-3.026,0-5.176.717-5.176,3.026,0,5.256,16.644-.876,16.644,13.379,0,9.158-6.849,11.786-14.494,11.786a66.269,66.269,0,0,1-11.786-1.195V70.517a62.825,62.825,0,0,0,10.99,1.354C594.112,71.871,595.785,70.836,595.785,68.606Z" transform="translate(-363.724 -43.6)" fill="#ffffff"/>
      </g>
      <g id="Group_289" data-name="Group 289" transform="translate(0.239 0)">
        <path id="Path_328" data-name="Path 328" d="M5.4.3H7.945l5.017,12.9H11.051L9.936,10.255H3.326L2.211,13.2H.3ZM3.724,8.821H9.458L6.751,1.654H6.432Z" transform="translate(-0.3 -0.061)" fill="#ffffff"/>
        <path id="Path_329" data-name="Path 329" d="M32.512,13.2,28.052,2.052h-.08V13.121H26.3V.3h2.947l4.38,11.149L38.007.3h2.867V13.2H39.2V2.132h-.08L34.582,13.281H32.512Z" transform="translate(-5.595 -0.061)" fill="#ffffff"/>
        <path id="Path_330" data-name="Path 330" d="M65.638.3V1.733H58.232v4.3h6.451V7.388H58.232v4.38h7.406V13.2H56.4V.3Z" transform="translate(-11.724 -0.061)" fill="#ffffff"/>
        <path id="Path_331" data-name="Path 331" d="M83.28.3c3.185,0,4.937,1.513,4.937,4.141A4.109,4.109,0,0,1,85.988,8.1l2.867,5.1H86.943L84.315,8.582H80.652V13.2H78.9V.3ZM80.652,7.228h2.867a2.645,2.645,0,0,0,2.867-2.787A2.723,2.723,0,0,0,83.36,1.733H80.572V7.228Z" transform="translate(-16.306 -0.061)" fill="#ffffff"/>
        <path id="Path_332" data-name="Path 332" d="M102,.3h1.752V13.2H102Z" transform="translate(-21.01 -0.061)" fill="#ffffff"/>
        <path id="Path_333" data-name="Path 333" d="M121.651,0a21.359,21.359,0,0,1,3.663.4V1.911a16.137,16.137,0,0,0-3.424-.478c-2.947,0-4.937,1.433-4.937,5.176,0,3.9,2.15,5.336,4.778,5.336a11.563,11.563,0,0,0,3.584-.557v1.433a15.967,15.967,0,0,1-3.663.478c-4.46,0-6.451-2.548-6.451-6.689C115.2,2.628,117.35,0,121.651,0Z" transform="translate(-23.698 0)" fill="#ffffff"/>
        <path id="Path_334" data-name="Path 334" d="M142.017.3h2.548l5.017,12.9h-1.911l-1.115-2.947h-6.61L138.832,13.2H137Zm-1.672,8.521h5.734l-2.708-7.167h-.239Z" transform="translate(-28.137 -0.061)" fill="#ffffff"/>
        <path id="Path_335" data-name="Path 335" d="M161.1,0h1.433a3.282,3.282,0,0,1,.08.956,5.961,5.961,0,0,1-.8,2.867H161.1V0Z" transform="translate(-33.045 0)" fill="#ffffff"/>
        <path id="Path_336" data-name="Path 336" d="M180.765,9.417c0-1.752-1.672-1.991-3.5-2.23-1.991-.239-4.061-.8-4.061-3.5C173.2.737,175.828.1,178.456.1c1.195,0,2.469.08,3.424.159V1.693a21.631,21.631,0,0,0-3.424-.239c-2.071,0-3.424.478-3.424,2.15s1.433,1.911,3.106,2.15c2.15.319,4.46.637,4.46,3.584,0,2.628-1.911,3.982-5.256,3.982A27.808,27.808,0,0,1,173.359,13V11.568a24.01,24.01,0,0,0,3.9.4C179.571,11.966,180.765,11.169,180.765,9.417Z" transform="translate(-35.509 -0.02)" fill="#ffffff"/>
        <path id="Path_337" data-name="Path 337" d="M211.452,2.848V13.2H209.7V.3h1.911l7.725,10.432V.3h1.752V13.2h-1.911Z" transform="translate(-42.942 -0.061)" fill="#ffffff"/>
        <path id="Path_338" data-name="Path 338" d="M239.017.3h2.548l5.017,12.9h-1.911l-1.115-2.947h-6.61L235.832,13.2H234Zm-1.593,8.521h5.734l-2.787-7.167h-.239Z" transform="translate(-47.89 -0.061)" fill="#ffffff"/>
        <path id="Path_339" data-name="Path 339" d="M267.986,1.733h-5.017V13.2h-1.752V1.733H256.2V.3h11.786Z" transform="translate(-52.411 -0.061)" fill="#ffffff"/>
        <path id="Path_340" data-name="Path 340" d="M286.195,13.44c-3.265,0-5.495-1.433-5.495-4.38V.3h1.752V9.06c0,2.071,1.991,2.867,3.743,2.867s3.743-.876,3.743-2.867V.3h1.752V8.98C291.69,11.927,289.46,13.44,286.195,13.44Z" transform="translate(-57.4 -0.061)" fill="#ffffff"/>
        <path id="Path_341" data-name="Path 341" d="M310.66.3c3.185,0,4.937,1.513,4.937,4.141a4.109,4.109,0,0,1-2.23,3.663l2.867,5.1h-1.991l-2.628-4.619h-3.663V13.2H306.2V.3Zm-2.708,6.928h2.867a2.645,2.645,0,0,0,2.867-2.787,2.723,2.723,0,0,0-3.026-2.708h-2.787V7.228Z" transform="translate(-62.592 -0.061)" fill="#ffffff"/>
        <path id="Path_342" data-name="Path 342" d="M332.517.3h2.548l5.017,12.9h-1.911l-1.115-2.947h-6.61L329.332,13.2H327.5Zm-1.672,8.521h5.734l-2.708-7.167h-.239Z" transform="translate(-66.93 -0.061)" fill="#ffffff"/>
        <path id="Path_343" data-name="Path 343" d="M355.032.3V11.768h6.849V13.2H353.2V.3Z" transform="translate(-72.163 -0.061)" fill="#ffffff"/>
        <path id="Path_344" data-name="Path 344" d="M393.488,11.966a13.066,13.066,0,0,0,2.947-.4V6.789h1.752V12.6a16.974,16.974,0,0,1-5.017.8c-4.46,0-6.769-2.469-6.769-6.689,0-3.9,2.548-6.61,7.327-6.61a20.764,20.764,0,0,1,3.823.4V1.932a16.2,16.2,0,0,0-3.823-.478c-2.787,0-5.575,1.433-5.575,5.256C388.232,10.373,390.382,11.966,393.488,11.966Z" transform="translate(-78.924 -0.02)" fill="#ffffff"/>
        <path id="Path_345" data-name="Path 345" d="M415.537.3h2.548L423.1,13.2h-1.832l-1.115-2.947h-6.61L412.432,13.2H410.6Zm-1.593,8.521h5.734l-2.708-7.167h-.239Z" transform="translate(-83.852 -0.061)" fill="#ffffff"/>
        <path id="Path_346" data-name="Path 346" d="M442.965,9.417c0-1.752-1.672-1.991-3.5-2.23-1.991-.239-4.061-.8-4.061-3.5C435.4.737,438.028.1,440.656.1c1.195,0,2.469.08,3.424.159V1.693a21.631,21.631,0,0,0-3.424-.239c-2.071,0-3.424.478-3.424,2.15s1.433,1.911,3.106,2.15c2.15.319,4.46.637,4.46,3.584,0,2.628-1.911,3.982-5.256,3.982A27.808,27.808,0,0,1,435.559,13V11.568a24.01,24.01,0,0,0,3.9.4C441.771,11.966,442.965,11.169,442.965,9.417Z" transform="translate(-88.902 -0.02)" fill="#ffffff"/>
        <path id="Path_347" data-name="Path 347" d="M474.317.3h2.548l5.017,12.9h-1.911l-1.115-2.947h-6.61L471.132,13.2H469.3Zm-1.593,8.521h5.734l-2.708-7.167h-.319Z" transform="translate(-95.806 -0.061)" fill="#ffffff"/>
        <path id="Path_348" data-name="Path 348" d="M496.952,2.848V13.2H495.2V.3h1.911l7.725,10.432V.3h1.752V13.2H504.6Z" transform="translate(-101.08 -0.061)" fill="#ffffff"/>
        <path id="Path_349" data-name="Path 349" d="M521.4,13.2V.3h4.7c3.9,0,6.69,2.15,6.69,6.451S530,13.2,526.1,13.2Zm4.46-11.468h-2.708V11.847h2.708c3.265,0,5.1-1.991,5.1-5.017C530.956,3.724,529.125,1.733,525.86,1.733Z" transform="translate(-106.415 -0.061)" fill="#ffffff"/>
        <path id="Path_350" data-name="Path 350" d="M566.091,0c4.38,0,6.291,2.548,6.291,6.689s-1.911,6.689-6.291,6.689S559.8,10.831,559.8,6.689C559.72,2.548,561.631,0,566.091,0Zm0,1.433c-2.867,0-4.539,1.593-4.539,5.256s1.672,5.256,4.46,5.256c2.867,0,4.539-1.593,4.539-5.256C570.55,2.947,568.878,1.433,566.091,1.433Z" transform="translate(-114.234 0)" fill="#ffffff"/>
        <path id="Path_351" data-name="Path 351" d="M586.6.3h1.752V13.2H586.6Z" transform="translate(-119.692 -0.061)" fill="#ffffff"/>
        <path id="Path_352" data-name="Path 352" d="M602.432.3V11.768h6.849V13.2H600.6V.3Z" transform="translate(-122.543 -0.061)" fill="#ffffff"/>
      </g>
    </g>
    <text id="Brought_to_you_by_the_American_Petroleum_Institute" data-name="Brought to you by the American Petroleum Institute" transform="translate(950 170)" fill="#ffffff" font-size="12" font-family="Quatro-Regular, Quatro"><tspan x="-146.07" y="0">Brought to you by the American Petroleum Institute</tspan></text>
  </g>
</svg>
